<svg xmlns="http://www.w3.org/2000/svg" class="contact_svg" width="58.983" height="58" viewBox="0 0 58.983 58">
    <path id="github-mark" d="M29.516,0a29.765,29.765,0,0,0-9.334,57.944c1.466.3,2-.64,2-1.427,0-.689-.048-3.052-.048-5.514-8.211,1.773-9.92-3.545-9.92-3.545-1.319-3.446-3.275-4.332-3.275-4.332-2.687-1.822.2-1.822.2-1.822a6.19,6.19,0,0,1,4.545,3.052c2.638,4.529,6.89,3.249,8.6,2.461a6.335,6.335,0,0,1,1.857-3.987C17.592,42.141,10.7,39.581,10.7,28.16a11.641,11.641,0,0,1,3.029-7.975,10.816,10.816,0,0,1,.294-7.877s2.492-.788,8.112,3.052a28.137,28.137,0,0,1,14.758,0c5.62-3.84,8.112-3.052,8.112-3.052a10.814,10.814,0,0,1,.293,7.877,11.418,11.418,0,0,1,3.03,7.975c0,11.422-6.89,13.932-13.487,14.671,1.075.935,2,2.707,2,5.514,0,3.987-.048,7.188-.048,8.172,0,.788.538,1.724,2,1.428A29.765,29.765,0,0,0,29.516,0Z" fill="#241F1F" fill-rule="evenodd"/>
  </svg>